{
	"asset":{
		"generator":"Khronos glTF Blender I/O v4.5.49",
		"version":"2.0"
	},
	"extensionsUsed":[
		"KHR_lights_punctual"
	],
	"extensionsRequired":[
		"KHR_lights_punctual"
	],
	"extensions":{
		"KHR_lights_punctual":{
			"lights":[
				{
					"color":[
						1,
						1,
						1
					],
					"intensity":79.57747154594767,
					"type":"point",
					"name":"Light"
				}
			]
		}
	},
	"scene":0,
	"scenes":[
		{
			"name":"Scene",
			"nodes":[
				1,
				2,
				3,
				5,
				7
			]
		}
	],
	"nodes":[
		{
			"mesh":0,
			"name":"Block-colonly"
		},
		{
			"children":[
				0
			],
			"mesh":1,
			"name":"Block",
			"scale":[
				2,
				2,
				2
			],
			"translation":[
				0,
				0,
				-12.720837593078613
			]
		},
		{
			"extensions":{
				"KHR_lights_punctual":{
					"light":0
				}
			},
			"name":"Light",
			"rotation":[
				-0.28416627645492554,
				0.7269423007965088,
				0.34203392267227173,
				0.5232754945755005
			],
			"translation":[
				4.076245307922363,
				5.903861999511719,
				-1.0054539442062378
			]
		},
		{
			"camera":0,
			"name":"Camera",
			"rotation":[
				-0.20997299253940582,
				0.3857799470424652,
				0.09062844514846802,
				0.8937962055206299
			],
			"translation":[
				7.358891487121582,
				4.958309173583984,
				6.925790786743164
			]
		},
		{
			"mesh":2,
			"name":"Block_Edge-colonly"
		},
		{
			"children":[
				4
			],
			"mesh":3,
			"name":"Block_Edge",
			"scale":[
				2,
				2,
				2
			],
			"translation":[
				0,
				0,
				-8.000876426696777
			]
		},
		{
			"mesh":4,
			"name":"Block_Corner-colonly"
		},
		{
			"children":[
				6
			],
			"mesh":5,
			"name":"Block_Corner",
			"scale":[
				2,
				2,
				2
			]
		}
	],
	"cameras":[
		{
			"name":"Camera",
			"perspective":{
				"aspectRatio":1.7777777777777777,
				"yfov":0.39959652046304894,
				"zfar":100,
				"znear":0.10000000149011612
			},
			"type":"perspective"
		}
	],
	"materials":[
		{
			"doubleSided":true,
			"name":"Material"
		},
		{
			"doubleSided":true,
			"name":"Material.001",
			"pbrMetallicRoughness":{
				"baseColorFactor":[
					0.800000011920929,
					0.800000011920929,
					0.800000011920929,
					1
				],
				"metallicFactor":0,
				"roughnessFactor":0.5
			}
		},
		{
			"doubleSided":true,
			"name":"Material.002",
			"pbrMetallicRoughness":{
				"baseColorFactor":[
					0.800000011920929,
					0.800000011920929,
					0.800000011920929,
					1
				],
				"metallicFactor":0,
				"roughnessFactor":0.5
			}
		}
	],
	"meshes":[
		{
			"name":"Cube.002",
			"primitives":[
				{
					"attributes":{
						"POSITION":0,
						"NORMAL":1,
						"TEXCOORD_0":2,
						"TANGENT":3
					},
					"indices":4
				}
			]
		},
		{
			"name":"Cube",
			"primitives":[
				{
					"attributes":{
						"POSITION":5,
						"NORMAL":6,
						"TEXCOORD_0":7,
						"TANGENT":8
					},
					"indices":9,
					"material":0
				}
			]
		},
		{
			"name":"Cube.001",
			"primitives":[
				{
					"attributes":{
						"POSITION":10,
						"NORMAL":11,
						"TEXCOORD_0":12,
						"TANGENT":13
					},
					"indices":4
				}
			]
		},
		{
			"name":"Cube.003",
			"primitives":[
				{
					"attributes":{
						"POSITION":14,
						"NORMAL":15,
						"TEXCOORD_0":16,
						"TANGENT":17
					},
					"indices":18,
					"material":1
				}
			]
		},
		{
			"name":"Cube.005",
			"primitives":[
				{
					"attributes":{
						"POSITION":19,
						"NORMAL":20,
						"TEXCOORD_0":21,
						"TANGENT":22
					},
					"indices":4
				}
			]
		},
		{
			"name":"Cube.004",
			"primitives":[
				{
					"attributes":{
						"POSITION":23,
						"NORMAL":24,
						"TEXCOORD_0":25,
						"TANGENT":26
					},
					"indices":27,
					"material":2
				}
			]
		}
	],
	"accessors":[
		{
			"bufferView":0,
			"componentType":5126,
			"count":24,
			"max":[
				1,
				1,
				1
			],
			"min":[
				-1,
				-1,
				-1
			],
			"type":"VEC3"
		},
		{
			"bufferView":1,
			"componentType":5126,
			"count":24,
			"type":"VEC3"
		},
		{
			"bufferView":2,
			"componentType":5126,
			"count":24,
			"type":"VEC2"
		},
		{
			"bufferView":3,
			"componentType":5126,
			"count":24,
			"type":"VEC4"
		},
		{
			"bufferView":4,
			"componentType":5123,
			"count":36,
			"type":"SCALAR"
		},
		{
			"bufferView":5,
			"componentType":5126,
			"count":96,
			"max":[
				1,
				1,
				1
			],
			"min":[
				-1,
				-1,
				-1
			],
			"type":"VEC3"
		},
		{
			"bufferView":6,
			"componentType":5126,
			"count":96,
			"type":"VEC3"
		},
		{
			"bufferView":7,
			"componentType":5126,
			"count":96,
			"type":"VEC2"
		},
		{
			"bufferView":8,
			"componentType":5126,
			"count":96,
			"type":"VEC4"
		},
		{
			"bufferView":9,
			"componentType":5123,
			"count":132,
			"type":"SCALAR"
		},
		{
			"bufferView":10,
			"componentType":5126,
			"count":24,
			"max":[
				1,
				1,
				1
			],
			"min":[
				-1,
				-1,
				-1
			],
			"type":"VEC3"
		},
		{
			"bufferView":11,
			"componentType":5126,
			"count":24,
			"type":"VEC3"
		},
		{
			"bufferView":12,
			"componentType":5126,
			"count":24,
			"type":"VEC2"
		},
		{
			"bufferView":13,
			"componentType":5126,
			"count":24,
			"type":"VEC4"
		},
		{
			"bufferView":14,
			"componentType":5126,
			"count":174,
			"max":[
				1,
				1.5,
				1
			],
			"min":[
				-1,
				-1,
				-1
			],
			"type":"VEC3"
		},
		{
			"bufferView":15,
			"componentType":5126,
			"count":174,
			"type":"VEC3"
		},
		{
			"bufferView":16,
			"componentType":5126,
			"count":174,
			"type":"VEC2"
		},
		{
			"bufferView":17,
			"componentType":5126,
			"count":174,
			"type":"VEC4"
		},
		{
			"bufferView":18,
			"componentType":5123,
			"count":252,
			"type":"SCALAR"
		},
		{
			"bufferView":19,
			"componentType":5126,
			"count":24,
			"max":[
				1,
				1,
				1
			],
			"min":[
				-1,
				-1,
				-1
			],
			"type":"VEC3"
		},
		{
			"bufferView":20,
			"componentType":5126,
			"count":24,
			"type":"VEC3"
		},
		{
			"bufferView":21,
			"componentType":5126,
			"count":24,
			"type":"VEC2"
		},
		{
			"bufferView":22,
			"componentType":5126,
			"count":24,
			"type":"VEC4"
		},
		{
			"bufferView":23,
			"componentType":5126,
			"count":235,
			"max":[
				1,
				1.5,
				1
			],
			"min":[
				-1,
				-1,
				-1
			],
			"type":"VEC3"
		},
		{
			"bufferView":24,
			"componentType":5126,
			"count":235,
			"type":"VEC3"
		},
		{
			"bufferView":25,
			"componentType":5126,
			"count":235,
			"type":"VEC2"
		},
		{
			"bufferView":26,
			"componentType":5126,
			"count":235,
			"type":"VEC4"
		},
		{
			"bufferView":27,
			"componentType":5123,
			"count":366,
			"type":"SCALAR"
		}
	],
	"bufferViews":[
		{
			"buffer":0,
			"byteLength":288,
			"byteOffset":0,
			"target":34962
		},
		{
			"buffer":0,
			"byteLength":288,
			"byteOffset":288,
			"target":34962
		},
		{
			"buffer":0,
			"byteLength":192,
			"byteOffset":576,
			"target":34962
		},
		{
			"buffer":0,
			"byteLength":384,
			"byteOffset":768,
			"target":34962
		},
		{
			"buffer":0,
			"byteLength":72,
			"byteOffset":1152,
			"target":34963
		},
		{
			"buffer":0,
			"byteLength":1152,
			"byteOffset":1224,
			"target":34962
		},
		{
			"buffer":0,
			"byteLength":1152,
			"byteOffset":2376,
			"target":34962
		},
		{
			"buffer":0,
			"byteLength":768,
			"byteOffset":3528,
			"target":34962
		},
		{
			"buffer":0,
			"byteLength":1536,
			"byteOffset":4296,
			"target":34962
		},
		{
			"buffer":0,
			"byteLength":264,
			"byteOffset":5832,
			"target":34963
		},
		{
			"buffer":0,
			"byteLength":288,
			"byteOffset":6096,
			"target":34962
		},
		{
			"buffer":0,
			"byteLength":288,
			"byteOffset":6384,
			"target":34962
		},
		{
			"buffer":0,
			"byteLength":192,
			"byteOffset":6672,
			"target":34962
		},
		{
			"buffer":0,
			"byteLength":384,
			"byteOffset":6864,
			"target":34962
		},
		{
			"buffer":0,
			"byteLength":2088,
			"byteOffset":7248,
			"target":34962
		},
		{
			"buffer":0,
			"byteLength":2088,
			"byteOffset":9336,
			"target":34962
		},
		{
			"buffer":0,
			"byteLength":1392,
			"byteOffset":11424,
			"target":34962
		},
		{
			"buffer":0,
			"byteLength":2784,
			"byteOffset":12816,
			"target":34962
		},
		{
			"buffer":0,
			"byteLength":504,
			"byteOffset":15600,
			"target":34963
		},
		{
			"buffer":0,
			"byteLength":288,
			"byteOffset":16104,
			"target":34962
		},
		{
			"buffer":0,
			"byteLength":288,
			"byteOffset":16392,
			"target":34962
		},
		{
			"buffer":0,
			"byteLength":192,
			"byteOffset":16680,
			"target":34962
		},
		{
			"buffer":0,
			"byteLength":384,
			"byteOffset":16872,
			"target":34962
		},
		{
			"buffer":0,
			"byteLength":2820,
			"byteOffset":17256,
			"target":34962
		},
		{
			"buffer":0,
			"byteLength":2820,
			"byteOffset":20076,
			"target":34962
		},
		{
			"buffer":0,
			"byteLength":1880,
			"byteOffset":22896,
			"target":34962
		},
		{
			"buffer":0,
			"byteLength":3760,
			"byteOffset":24776,
			"target":34962
		},
		{
			"buffer":0,
			"byteLength":732,
			"byteOffset":28536,
			"target":34963
		}
	],
	"buffers":[
		{
			"byteLength":29268,
			"uri":"Blocks-7f4003de1c4493d06d8f52a58ebf398d.bin"
		}
	]
}
